<?xml version="1.0" standalone="no"?>
<!DOCTYPE svg PUBLIC "-//W3C//DTD SVG 20010904//EN"
 "http://www.w3.org/TR/2001/REC-SVG-20010904/DTD/svg10.dtd">
<svg version="1.0" xmlns="http://www.w3.org/2000/svg"
 width="476.000000pt" height="476.000000pt" viewBox="0 0 476.000000 476.000000"
 preserveAspectRatio="xMidYMid meet">
<metadata>
Created by potrace 1.11, written by Peter Selinger 2001-2013
</metadata>
<g transform="translate(0.000000,476.000000) scale(0.100000,-0.100000)"
fill="#000000" stroke="none">
<path d="M990 4380 l0 -50 165 0 165 0 0 -1960 0 -1960 -165 0 -165 0 0 -50 0
-50 1505 0 1506 0 -3 619 c-3 592 -4 620 -22 640 -43 47 -98 9 -110 -76 -41
-285 -138 -570 -249 -732 -90 -132 -249 -261 -370 -300 -113 -37 -172 -41
-564 -41 l-383 0 0 1955 0 1955 165 0 165 0 0 50 0 50 -820 0 -820 0 0 -50z"/>
</g>
</svg>
